<svg xmlns="http://www.w3.org/2000/svg" width="29.095" height="27.71" viewBox="0 0 29.095 27.71">
  <path id="Trazado_1" data-name="Trazado 1" d="M-43.631,567.647H-68.346a2.206,2.206,0,0,0-2.19,2.214v18.124a2.205,2.205,0,0,0,2.19,2.214h13.308l7.969,5.06a.6.6,0,0,0,.618.017.62.62,0,0,0,.314-.541V590.2h2.506a2.205,2.205,0,0,0,2.19-2.214V569.863a2.205,2.205,0,0,0-2.19-2.221Zm-5.04,16.123h-6.014a1.682,1.682,0,0,1-1.671-1.693,1.683,1.683,0,0,1,1.671-1.691h6.014A1.681,1.681,0,0,1-47,582.08a1.681,1.681,0,0,1-1.67,1.693Zm0-6.771H-62.793a1.681,1.681,0,0,1-1.669-1.693,1.681,1.681,0,0,1,1.668-1.693h14.121A1.682,1.682,0,0,1-47,575.307,1.683,1.683,0,0,1-48.671,577Z" transform="translate(70.536 -567.642)" fill="#fff"/>
</svg>
