<svg xmlns="http://www.w3.org/2000/svg" width="9.529" height="8.953" viewBox="0 0 9.529 8.953">
  <path id="Trazado_1" data-name="Trazado 1" d="M-61.725,567.646h-8.094a.717.717,0,0,0-.717.717v5.854a.717.717,0,0,0,.717.717h4.358l2.61,1.635a.2.2,0,0,0,.2.005.2.2,0,0,0,.1-.175v-1.465h.821a.717.717,0,0,0,.717-.717v-5.854a.718.718,0,0,0-.717-.718Zm-1.651,5.21h-1.97a.547.547,0,0,1-.547-.547.547.547,0,0,1,.547-.546h1.969a.547.547,0,0,1,.547.547.547.547,0,0,1-.547.547Zm0-2.188H-68a.547.547,0,0,1-.546-.547.547.547,0,0,1,.546-.547h4.625a.547.547,0,0,1,.547.547.547.547,0,0,1-.547.547Z" transform="translate(70.536 -567.646)" fill="#b2b2b2"/>
</svg>
