<svg xmlns="http://www.w3.org/2000/svg" width="24.95" height="22.263" viewBox="0 0 24.95 22.263">
  <path id="cart-shopping-solid" d="M1.044,0a1.044,1.044,0,0,0,0,2.087H3.309L5.931,15.849a1.048,1.048,0,0,0,1.026.848H21.219a1.044,1.044,0,0,0,0-2.087H7.822l-.4-2.087H21.21A1.392,1.392,0,0,0,22.55,11.51L24.9,3.161a1.394,1.394,0,0,0-1.339-1.77H5.3L5.2.848A1.048,1.048,0,0,0,4.174,0ZM7.653,22.263a2.087,2.087,0,1,0-2.087-2.087A2.088,2.088,0,0,0,7.653,22.263Zm14.61-2.087a2.087,2.087,0,1,0-2.087,2.087A2.088,2.088,0,0,0,22.263,20.176Z" fill="#fff"/>
</svg>
