<svg xmlns="http://www.w3.org/2000/svg" width="16.442" height="16.443" viewBox="0 0 16.442 16.443">
  <g id="_8-refresh" data-name="8-refresh" transform="translate(62.537 -55.896)">
    <path id="Trazado_1444" data-name="Trazado 1444" d="M-46.322,57a.8.8,0,0,0-1.131-.016l-1.184,1.184a8.231,8.231,0,0,0-4.137-2.129,8.222,8.222,0,0,0-9.617,6.535.522.522,0,0,0-.007.068.4.4,0,0,0,.4.4h1.9a.4.4,0,0,0,.386-.3,5.568,5.568,0,0,1,1.327-2.43,5.571,5.571,0,0,1,7.873-.27L-51.9,61.437a.8.8,0,0,0-.227.548.8.8,0,0,0,.79.81H-46.9a.8.8,0,0,0,.8-.8V57.551A.8.8,0,0,0-46.322,57Z" fill="#fff"/>
    <path id="Trazado_1445" data-name="Trazado 1445" d="M-46.635,65.179h-1.9a.4.4,0,0,0-.386.3,5.578,5.578,0,0,1-1.328,2.431,5.569,5.569,0,0,1-7.872.269l1.384-1.384a.8.8,0,0,0,.221-.531.8.8,0,0,0-.777-.822h-4.444a.8.8,0,0,0-.8.795v4.444a.8.8,0,0,0,.226.548.8.8,0,0,0,1.132.015L-60,70.062a8.214,8.214,0,0,0,4.146,2.133,8.223,8.223,0,0,0,9.611-6.546.371.371,0,0,0,.006-.067A.4.4,0,0,0-46.635,65.179Z" fill="#fff"/>
  </g>
</svg>
