<svg xmlns="http://www.w3.org/2000/svg" width="14.485" height="14.482" viewBox="0 0 14.485 14.482">
  <path id="_9-close" data-name="9-close" d="M-20.8,64.492l4.542-4.542a1.581,1.581,0,0,0,0-2.236,1.581,1.581,0,0,0-2.236,0l-4.544,4.542-4.542-4.542a1.581,1.581,0,0,0-2.236,0,1.581,1.581,0,0,0,0,2.236l4.542,4.542-4.54,4.539a1.581,1.581,0,0,0,0,2.236,1.574,1.574,0,0,0,1.118.464,1.578,1.578,0,0,0,1.119-.464l4.54-4.539,4.541,4.539a1.577,1.577,0,0,0,1.118.464,1.576,1.576,0,0,0,1.119-.464,1.581,1.581,0,0,0,0-2.236Z" transform="translate(30.275 -57.25)" fill="#fff"/>
</svg>
