<?xml version="1.0" standalone="no"?>
<!DOCTYPE svg PUBLIC "-//W3C//DTD SVG 20010904//EN"
 "http://www.w3.org/TR/2001/REC-SVG-20010904/DTD/svg10.dtd">
<svg version="1.0" xmlns="http://www.w3.org/2000/svg"
 width="1024.000000pt" height="1024.000000pt" viewBox="0 0 1024.000000 1024.000000"
 preserveAspectRatio="xMidYMid meet">

<g transform="translate(0.000000,1024.000000) scale(0.100000,-0.100000)"
fill="#000000" stroke="none">
<path d="M2828 7111 c-77 -25 -118 -52 -177 -116 -107 -118 -128 -283 -54
-429 36 -71 112 -142 191 -179 59 -27 77 -31 157 -31 70 0 102 5 145 22 81 32
162 108 202 190 30 61 33 74 33 162 0 86 -3 101 -31 160 -45 94 -102 153 -190
196 -93 46 -186 55 -276 25z"/>
<path d="M2224 6621 c-44 -20 -754 -707 -799 -773 -80 -118 -63 -287 38 -386
28 -27 156 -104 387 -231 254 -139 350 -197 362 -218 16 -25 18 -64 18 -408 0
-375 0 -381 23 -425 30 -60 73 -82 150 -77 101 6 147 58 155 170 l5 75 137
144 138 143 -15 -75 c-18 -94 -12 -309 12 -395 60 -218 226 -417 430 -515 101
-48 184 -69 305 -76 592 -37 1029 519 844 1074 -40 120 -99 216 -194 313 -179
182 -417 269 -660 241 -52 -5 -98 -7 -101 -4 -7 7 -119 342 -119 355 0 4 70 7
155 7 170 0 197 7 233 57 43 62 35 137 -18 188 l-31 30 -357 3 -357 3 -60 87
c-213 315 -431 631 -449 650 -54 61 -153 79 -232 43z m310 -751 c121 -171 186
-254 215 -275 42 -30 43 -30 201 -33 137 -3 159 -6 165 -20 12 -30 85 -246 85
-252 0 -4 -63 -69 -141 -146 -77 -76 -221 -223 -320 -326 l-179 -187 0 272 c0
150 -5 290 -10 311 -5 22 -21 58 -37 80 -29 40 -52 56 -436 293 l-177 110 222
211 c123 116 227 210 231 209 4 -1 86 -112 181 -247z m1237 -900 c149 -28 319
-162 393 -309 88 -173 88 -370 1 -546 -46 -93 -100 -154 -189 -213 -251 -168
-567 -142 -772 62 -232 231 -234 615 -4 847 36 36 84 76 108 88 l42 22 10 -23
c5 -13 50 -144 100 -293 99 -295 110 -315 176 -315 20 0 44 5 55 10 25 14 49
62 49 98 0 16 -40 149 -90 296 -49 147 -90 271 -90 276 0 13 142 13 211 0z"/>
<path d="M6780 6097 c-134 -30 -220 -131 -220 -257 0 -126 73 -211 228 -265
148 -52 183 -68 202 -93 41 -52 12 -122 -61 -143 -78 -24 -163 27 -176 104
l-6 39 -51 -6 c-28 -3 -72 -6 -98 -6 l-48 0 0 -48 c0 -66 42 -147 98 -189 61
-46 139 -67 247 -67 111 0 177 21 238 75 108 94 111 289 7 383 -50 45 -91 65
-213 106 -117 38 -157 68 -157 115 0 50 35 86 91 92 75 9 117 -23 142 -108 3
-10 14 -15 29 -13 12 1 54 3 92 3 l69 1 -6 55 c-3 30 -16 74 -29 98 -25 46
-97 100 -156 117 -60 17 -163 21 -222 7z"/>
<path d="M4670 5635 l0 -455 100 0 100 0 0 277 c0 152 4 273 8 268 5 -6 46
-101 92 -213 l83 -203 81 3 80 3 53 125 c29 69 68 162 86 207 17 46 35 83 40
83 4 0 7 -124 7 -275 l0 -275 95 0 95 0 0 455 0 455 -115 0 -116 0 -28 -62
c-15 -35 -63 -152 -107 -260 -43 -109 -81 -198 -84 -197 -3 0 -24 48 -48 107
-24 59 -71 176 -105 260 l-62 152 -127 0 -128 0 0 -455z"/>
<path d="M5975 6078 c-2 -7 -38 -121 -80 -253 -42 -132 -103 -321 -135 -420
-32 -99 -61 -190 -65 -203 l-7 -23 109 3 108 3 24 88 24 87 143 0 143 0 15
-52 c8 -29 19 -69 24 -88 l8 -35 112 -3 c62 -1 112 0 112 4 0 3 -24 81 -54
172 -44 135 -145 451 -220 687 l-13 40 -122 3 c-92 2 -122 -1 -126 -10z m180
-393 c24 -82 42 -152 39 -154 -6 -6 -194 -14 -194 -8 0 8 90 322 97 337 5 12
7 11 10 -5 3 -11 24 -87 48 -170z"/>
<path d="M7270 6000 l0 -90 105 0 105 0 0 -365 0 -365 105 0 105 0 0 365 0
365 105 0 105 0 0 90 0 90 -315 0 -315 0 0 -90z"/>
<path d="M8020 5635 l0 -455 275 0 275 0 0 90 0 90 -175 0 -175 0 0 100 0 100
155 0 155 0 0 85 0 85 -155 0 -155 0 0 90 0 90 175 0 175 0 0 90 0 90 -275 0
-275 0 0 -455z"/>
<path d="M8720 5635 l0 -455 100 0 100 0 0 165 0 165 43 0 42 0 85 -162 85
-163 113 -3 c119 -3 128 1 98 43 -7 11 -50 87 -95 169 -68 124 -80 151 -67
158 103 57 150 136 150 248 1 137 -66 231 -193 270 -54 17 -92 20 -262 20
l-199 0 0 -455z m383 264 c40 -20 57 -51 57 -104 0 -90 -47 -125 -170 -125
l-70 0 0 120 0 120 81 0 c44 0 90 -5 102 -11z"/>
<path d="M1180 5195 c-328 -66 -569 -301 -634 -617 -23 -111 -21 -294 4 -394
71 -285 309 -520 600 -595 80 -20 288 -18 369 4 217 59 380 176 500 358 85
130 122 246 128 409 6 137 -6 208 -54 334 -52 139 -178 291 -317 383 -167 112
-399 158 -596 118z m305 -230 c201 -53 367 -220 420 -421 19 -75 19 -233 0
-309 -26 -100 -74 -184 -151 -262 -90 -92 -217 -157 -343 -175 -291 -43 -577
154 -646 443 -17 76 -20 217 -4 291 41 197 207 373 404 429 78 23 240 24 320
4z"/>
<path d="M8227 4910 c-83 -21 -152 -74 -190 -145 -17 -31 -22 -58 -22 -115 0
-87 22 -137 80 -188 46 -41 69 -53 206 -102 127 -46 159 -71 159 -125 0 -51
-35 -86 -92 -92 -90 -10 -152 31 -164 108 l-7 39 -71 -6 c-39 -3 -86 -7 -105
-10 l-33 -5 7 -47 c19 -128 100 -208 244 -242 76 -18 203 -8 269 20 71 31 136
103 152 171 24 101 -5 206 -75 267 -47 42 -89 62 -210 102 -114 38 -155 70
-155 120 0 22 9 41 29 61 25 24 37 29 80 29 41 0 56 -5 82 -28 17 -15 34 -42
38 -62 l7 -35 89 4 c50 2 94 5 98 8 13 8 -2 92 -23 133 -26 49 -77 95 -135
121 -56 25 -194 35 -258 19z"/>
<path d="M5523 4892 l-163 -2 0 -451 0 -451 233 4 233 3 65 32 c48 24 74 44
93 74 78 118 48 280 -65 346 -16 10 -29 20 -29 23 0 3 15 15 34 27 99 64 103
255 7 336 -64 53 -136 64 -408 59z m252 -187 c37 -36 35 -97 -4 -136 -28 -28
-33 -29 -120 -29 l-91 0 0 95 0 95 95 0 c88 0 98 -2 120 -25z m10 -356 c50
-50 42 -133 -17 -169 -26 -16 -51 -20 -120 -20 l-88 0 0 111 0 111 100 -4 c91
-3 102 -5 125 -29z"/>
<path d="M6248 4892 l-98 -3 -2 -449 -3 -450 102 0 103 0 2 451 c2 248 1 452
-2 452 -3 1 -49 1 -102 -1z"/>
<path d="M7095 4891 l-109 -6 -116 -167 c-64 -92 -122 -174 -130 -183 -13 -13
-15 8 -12 170 l3 185 -108 0 -108 0 3 -450 2 -450 104 0 104 0 -3 153 c-1 83
1 177 4 207 l6 54 135 -207 135 -207 128 0 128 0 -137 203 c-76 111 -151 220
-166 241 -17 24 -25 43 -19 50 4 6 59 81 121 166 62 85 125 172 141 192 31 39
37 59 17 56 -7 -1 -62 -4 -123 -7z"/>
<path d="M7373 4892 l-23 -3 0 -450 0 -449 280 0 280 0 0 90 0 90 -180 0 -180
0 0 100 0 100 155 0 155 0 0 85 0 85 -155 0 -156 0 3 88 3 87 173 3 173 2 -3
86 -3 85 -250 2 c-137 1 -260 1 -272 -1z"/>
</g>
</svg>
